<svg xmlns="http://www.w3.org/2000/svg" xmlns:xlink="http://www.w3.org/1999/xlink" contentStyleType="text/css" height="582px" preserveAspectRatio="none" style="width:340px;height:582px;background:#FFFFFF;" version="1.1" viewBox="0 0 340 582" width="340px" zoomAndPan="magnify"><defs/><g><ellipse cx="231.33" cy="16" fill="#222222" rx="10" ry="10" style="stroke:#222222;stroke-width:1.0;"/><g id="Survival_Mode"><rect fill="#F1F1F1" height="50" rx="12.5" ry="12.5" style="stroke:#181818;stroke-width:0.5;" width="121.5889" x="170.54" y="86"/><line style="stroke:#181818;stroke-width:0.5;" x1="170.54" x2="292.1289" y1="112.2969" y2="112.2969"/><text fill="#000000" font-family="sans-serif" font-size="14" lengthAdjust="spacing" textLength="101.5889" x="180.54" y="103.9951">Survival_Mode</text></g><g id="Initialisation"><rect fill="#F1F1F1" height="50" rx="12.5" ry="12.5" style="stroke:#181818;stroke-width:0.5;" width="105.3193" x="178.67" y="196"/><line style="stroke:#181818;stroke-width:0.5;" x1="178.67" x2="283.9893" y1="222.2969" y2="222.2969"/><text fill="#000000" font-family="sans-serif" font-size="14" lengthAdjust="spacing" textLength="85.3193" x="188.67" y="213.9951">Initialisation</text></g><g id="Calibrating"><rect fill="#F1F1F1" height="50" rx="12.5" ry="12.5" style="stroke:#181818;stroke-width:0.5;" width="96.4941" x="183.09" y="306"/><line style="stroke:#181818;stroke-width:0.5;" x1="183.09" x2="279.5841" y1="332.2969" y2="332.2969"/><text fill="#000000" font-family="sans-serif" font-size="14" lengthAdjust="spacing" textLength="76.4941" x="193.09" y="323.9951">Calibrating</text></g><g id="Measurement_Collection"><rect fill="#F1F1F1" height="50" rx="12.5" ry="12.5" style="stroke:#181818;stroke-width:0.5;" width="192.6689" x="7" y="416"/><line style="stroke:#181818;stroke-width:0.5;" x1="7" x2="199.6689" y1="442.2969" y2="442.2969"/><text fill="#000000" font-family="sans-serif" font-size="14" lengthAdjust="spacing" textLength="172.6689" x="17" y="433.9951">Measurement_Collection</text></g><g id="Error_Detected"><rect fill="#F1F1F1" height="50" rx="12.5" ry="12.5" style="stroke:#181818;stroke-width:0.5;" width="125.8613" x="207.4" y="526"/><line style="stroke:#181818;stroke-width:0.5;" x1="207.4" x2="333.2613" y1="552.2969" y2="552.2969"/><text fill="#000000" font-family="sans-serif" font-size="14" lengthAdjust="spacing" textLength="105.8613" x="217.4" y="543.9951">Error_Detected</text></g><!--link *start* to Survival_Mode--><g id="link_*start*_Survival_Mode"><path d="M231.33,26.26 C231.33,39.95 231.33,60.07 231.33,79.52 " fill="none" id="*start*-to-Survival_Mode" style="stroke:#181818;stroke-width:1.0;"/><polygon fill="#181818" points="231.33,85.52,235.33,76.52,231.33,80.52,227.33,76.52,231.33,85.52" style="stroke:#181818;stroke-width:1.0;"/></g><!--link Survival_Mode to Initialisation--><g id="link_Survival_Mode_Initialisation"><path d="M231.33,136.24 C231.33,154.02 231.33,172.08 231.33,189.84 " fill="none" id="Survival_Mode-to-Initialisation" style="stroke:#181818;stroke-width:1.0;"/><polygon fill="#181818" points="231.33,195.84,235.33,186.84,231.33,190.84,227.33,186.84,231.33,195.84" style="stroke:#181818;stroke-width:1.0;"/></g><!--link Initialisation to Calibrating--><g id="link_Initialisation_Calibrating"><path d="M231.33,246.24 C231.33,264.02 231.33,282.08 231.33,299.84 " fill="none" id="Initialisation-to-Calibrating" style="stroke:#181818;stroke-width:1.0;"/><polygon fill="#181818" points="231.33,305.84,235.33,296.84,231.33,300.84,227.33,296.84,231.33,305.84" style="stroke:#181818;stroke-width:1.0;"/></g><!--link Initialisation to Measurement_Collection--><g id="link_Initialisation_Measurement_Collection"><path d="M209.8,246.25 C196.05,262.46 178.41,284.65 165.33,306 C142.97,342.5 125.6102,382.8219 114.7102,410.3319 " fill="none" id="Initialisation-to-Measurement_Collection" style="stroke:#181818;stroke-width:1.0;"/><polygon fill="#181818" points="112.5,415.91,119.534,409.0163,114.3418,411.2616,112.0965,406.0694,112.5,415.91" style="stroke:#181818;stroke-width:1.0;"/></g><!--link Measurement_Collection to Measurement_Collection--><g id="link_Measurement_Collection_Measurement_Collection"><path d="M200.12,421.1 C220.22,423.19 234.67,429.83 234.67,441 C234.67,452.17 226.1878,458.1895 206.0878,460.2795 " fill="none" id="Measurement_Collection-to-Measurement_Collection" style="stroke:#181818;stroke-width:1.0;"/><polygon fill="#181818" points="200.12,460.9,209.4854,463.9477,205.0932,460.3829,208.658,455.9906,200.12,460.9" style="stroke:#181818;stroke-width:1.0;"/></g><!--link Calibrating to Measurement_Collection--><g id="link_Calibrating_Measurement_Collection"><path d="M202.61,356.24 C181.53,374.02 157.6068,394.212 136.5468,411.972 " fill="none" id="Calibrating-to-Measurement_Collection" style="stroke:#181818;stroke-width:1.0;"/><polygon fill="#181818" points="131.96,415.84,141.4188,413.0958,135.7823,412.6166,136.2614,406.9801,131.96,415.84" style="stroke:#181818;stroke-width:1.0;"/></g><!--link Initialisation to Error_Detected--><g id="link_Initialisation_Error_Detected"><path d="M257.83,246.46 C272.56,261.91 289.45,283.21 297.33,306 C323.94,382.93 297.8384,475.2397 281.8384,520.0297 " fill="none" id="Initialisation-to-Error_Detected" style="stroke:#181818;stroke-width:1.0;"/><polygon fill="#181818" points="279.82,525.68,286.6145,518.5501,281.502,520.9714,279.0808,515.8589,279.82,525.68" style="stroke:#181818;stroke-width:1.0;"/></g><!--link Calibrating to Error_Detected--><g id="link_Calibrating_Error_Detected"><path d="M235.66,356.16 C243.15,398.07 257.4234,477.8438 264.9334,519.8238 " fill="none" id="Calibrating-to-Error_Detected" style="stroke:#181818;stroke-width:1.0;"/><polygon fill="#181818" points="265.99,525.73,268.3426,516.1663,265.1095,520.8081,260.4676,517.575,265.99,525.73" style="stroke:#181818;stroke-width:1.0;"/></g><!--link Measurement_Collection to Error_Detected--><g id="link_Measurement_Collection_Error_Detected"><path d="M140.81,466.24 C168.22,483.96 200.2121,504.6512 227.6521,522.4012 " fill="none" id="Measurement_Collection-to-Error_Detected" style="stroke:#181818;stroke-width:1.0;"/><polygon fill="#181818" points="232.69,525.66,227.3058,517.4132,228.4918,522.9443,222.9607,524.1303,232.69,525.66" style="stroke:#181818;stroke-width:1.0;"/></g><!--SRC=[YzQALT3LjLC8BYqgoonBp8dtpKz9vKBXWUKzyp9BCXDpCeiJIpBpyxXGkM0Lpa1kKX6GdvUEJTetDR6uj2WrDpMl9DuvFoSdDHbi47PXV3gGxC6d39iRN8kAyelYNL9BW6fIKp1CGfF6upHKbG00]--></g></svg>