<svg xmlns="http://www.w3.org/2000/svg" xmlns:xlink="http://www.w3.org/1999/xlink" contentStyleType="text/css" height="650px" preserveAspectRatio="none" style="width:714px;height:650px;background:#FFFFFF;" version="1.1" viewBox="0 0 714 650" width="714px" zoomAndPan="magnify"><defs/><g><!--cluster spectrometer--><g id="cluster_spectrometer"><path d="M127.5,6 L301.2236,6 A3.75,3.75 0 0 1 303.7236,8.5 L310.7236,28.2969 L379.45,28.2969 A2.5,2.5 0 0 1 381.95,30.7969 L381.95,640.5 A2.5,2.5 0 0 1 379.45,643 L127.5,643 A2.5,2.5 0 0 1 125,640.5 L125,8.5 A2.5,2.5 0 0 1 127.5,6 " fill="none" style="stroke:#000000;stroke-width:1.5;"/><line style="stroke:#000000;stroke-width:1.5;" x1="125" x2="310.7236" y1="28.2969" y2="28.2969"/><text fill="#000000" font-family="sans-serif" font-size="14" font-weight="bold" lengthAdjust="spacing" textLength="172.7236" x="129" y="20.9951">Gamma Spectrometer</text></g><g id="elem_change_sample"><ellipse cx="253.4678" cy="64.9976" fill="#F1F1F1" rx="108.9878" ry="24.1976" style="stroke:#181818;stroke-width:0.5;"/><text fill="#000000" font-family="sans-serif" font-size="14" lengthAdjust="spacing" textLength="183.6885" x="161.6236" y="67.8442">Change Measured Sample</text></g><g id="elem_power_on_off"><ellipse cx="253.4679" cy="537.9976" fill="#F1F1F1" rx="68.1879" ry="16.0376" style="stroke:#181818;stroke-width:0.5;"/><text fill="#000000" font-family="sans-serif" font-size="14" lengthAdjust="spacing" textLength="87.8555" x="206.5402" y="541.7451">Power on/off</text></g><g id="elem_change_mode"><ellipse cx="253.4712" cy="389.0002" fill="#F1F1F1" rx="71.2512" ry="16.6502" style="stroke:#181818;stroke-width:0.5;"/><text fill="#000000" font-family="sans-serif" font-size="14" lengthAdjust="spacing" textLength="96.1953" x="202.3735" y="392.7478">Change Mode</text></g><g id="elem_read_measurements"><ellipse cx="253.467" cy="299.9974" fill="#F1F1F1" rx="90.987" ry="20.5974" style="stroke:#181818;stroke-width:0.5;"/><text fill="#000000" font-family="sans-serif" font-size="14" lengthAdjust="spacing" textLength="143.9717" x="181.4812" y="302.8441">Read Measurements</text></g><g id="elem_check_temp"><ellipse cx="253.4714" cy="149.0043" fill="#F1F1F1" rx="112.4714" ry="24.8943" style="stroke:#181818;stroke-width:0.5;"/><text fill="#000000" font-family="sans-serif" font-size="14" lengthAdjust="spacing" textLength="191.2148" x="157.864" y="151.851">Check Device Temperature</text></g><g id="elem_flash_firmware"><ellipse cx="253.4699" cy="607.996" fill="#F1F1F1" rx="80.9799" ry="18.596" style="stroke:#181818;stroke-width:0.5;"/><text fill="#000000" font-family="sans-serif" font-size="14" lengthAdjust="spacing" textLength="120.8867" x="191.7237" y="611.2676">Update Firmware</text></g><g id="elem_calibrate_spectrometer"><ellipse cx="253.4718" cy="472.0036" fill="#F1F1F1" rx="57.4218" ry="14.7536" style="stroke:#181818;stroke-width:0.5;"/><text fill="#000000" font-family="sans-serif" font-size="14" lengthAdjust="spacing" textLength="63.458" x="218.7428" y="475.7512">Calibrate</text></g><g id="elem_view_error_logs"><ellipse cx="253.4654" cy="226.9951" fill="#F1F1F1" rx="76.4254" ry="17.6851" style="stroke:#181818;stroke-width:0.5;"/><text fill="#000000" font-family="sans-serif" font-size="14" lengthAdjust="spacing" textLength="109.6553" x="195.6378" y="230.7426">View Error Logs</text></g><!--entity local_user--><g id="elem_local_user"><ellipse cx="42.0051" cy="270.35" fill="#F1F1F1" rx="8" ry="8" style="stroke:#181818;stroke-width:0.5;"/><path d="M42.0051,278.35 L42.0051,305.35 M29.0051,286.35 L55.0051,286.35 M42.0051,305.35 L29.0051,320.35 M42.0051,305.35 L55.0051,320.35 " fill="none" style="stroke:#181818;stroke-width:0.5;"/><text fill="#000000" font-family="sans-serif" font-size="14" lengthAdjust="spacing" textLength="31.9102" x="26.05" y="334.8451">User</text></g><!--entity developer--><g id="elem_developer"><ellipse cx="42.0015" cy="542.35" fill="#F1F1F1" rx="8" ry="8" style="stroke:#181818;stroke-width:0.5;"/><path d="M42.0015,550.35 L42.0015,577.35 M29.0015,558.35 L55.0015,558.35 M42.0015,577.35 L29.0015,592.35 M42.0015,577.35 L55.0015,592.35 " fill="none" style="stroke:#181818;stroke-width:0.5;"/><text fill="#000000" font-family="sans-serif" font-size="14" lengthAdjust="spacing" textLength="72.0029" x="6" y="606.8451">Developer</text></g><g id="elem_GMN15"><path d="M428.95,376.43 L428.95,385 L325.04,389 L428.95,393 L428.95,401.5628 A0,0 0 0 0 428.95,401.5628 L707.3982,401.5628 A0,0 0 0 0 707.3982,401.5628 L707.3982,386.43 L697.3982,376.43 L428.95,376.43 A0,0 0 0 0 428.95,376.43 " fill="#FEFFDD" style="stroke:#181818;stroke-width:0.5;"/><path d="M697.3982,376.43 L697.3982,386.43 L707.3982,386.43 L697.3982,376.43 " fill="#FEFFDD" style="stroke:#181818;stroke-width:0.5;"/><text fill="#000000" font-family="sans-serif" font-size="13" lengthAdjust="spacing" textLength="257.4482" x="434.95" y="393.4969">Switch between INIT/RUN/CALIBRATION</text></g><g id="elem_GMN18"><path d="M430.03,128.87 L430.03,145 L366.04,149 L430.03,153 L430.03,169.1356 A0,0 0 0 0 430.03,169.1356 L706.3137,169.1356 A0,0 0 0 0 706.3137,169.1356 L706.3137,138.87 L696.3137,128.87 L430.03,128.87 A0,0 0 0 0 430.03,128.87 " fill="#FEFFDD" style="stroke:#181818;stroke-width:0.5;"/><path d="M696.3137,128.87 L696.3137,138.87 L706.3137,138.87 L696.3137,128.87 " fill="#FEFFDD" style="stroke:#181818;stroke-width:0.5;"/><text fill="#000000" font-family="sans-serif" font-size="13" lengthAdjust="spacing" textLength="255.2837" x="436.03" y="145.9369">Monitor temperature from sensor tube,</text><text fill="#000000" font-family="sans-serif" font-size="13" lengthAdjust="spacing" textLength="148.0083" x="436.03" y="161.0697">HV power supply, MCU</text></g><!--link read_measurements to change_mode--><g id="link_read_measurements_change_mode"><path d="M253.47,321.06 C253.47,336.71 253.47,351.76 253.47,366.26 " fill="none" id="read_measurements-to-change_mode" style="stroke:#181818;stroke-width:1.0;stroke-dasharray:7.0,7.0;"/><polygon fill="#181818" points="253.47,372.26,257.47,363.26,253.47,367.26,249.47,363.26,253.47,372.26" style="stroke:#181818;stroke-width:1.0;"/><text fill="#000000" font-family="sans-serif" font-size="13" lengthAdjust="spacing" textLength="69.7798" x="207.47" y="351.0369">&#171;includes&#187;</text></g><!--link calibrate_spectrometer to change_mode--><g id="link_calibrate_spectrometer_change_mode"><path d="M253.47,456.78 C253.47,442.46 253.47,427.04 253.47,412.13 " fill="none" id="calibrate_spectrometer-to-change_mode" style="stroke:#181818;stroke-width:1.0;stroke-dasharray:7.0,7.0;"/><polygon fill="#181818" points="253.47,406.13,249.47,415.13,253.47,411.13,257.47,415.13,253.47,406.13" style="stroke:#181818;stroke-width:1.0;"/><text fill="#000000" font-family="sans-serif" font-size="13" lengthAdjust="spacing" textLength="69.7798" x="207.47" y="436.0169">&#171;includes&#187;</text></g><!--link local_user to change_sample--><g id="link_local_user_change_sample"><path d="M47.69,261.48 C54.99,218.03 73.13,148.09 117,107 C130.39,94.46 141.8021,87.6571 159.2821,81.4871 " fill="none" id="local_user-to-change_sample" style="stroke:#181818;stroke-width:1.0;"/><polygon fill="#181818" points="164.94,79.49,155.1218,78.7137,160.2251,81.1542,157.7846,86.2576,164.94,79.49" style="stroke:#181818;stroke-width:1.0;"/></g><!--link local_user to power_on_off--><g id="link_local_user_power_on_off"><path d="M46.24,338.26 C52.23,384.31 69.18,460.83 117,504 C135.99,521.14 156.4356,528.8633 180.8456,533.2733 " fill="none" id="local_user-to-power_on_off" style="stroke:#181818;stroke-width:1.0;"/><polygon fill="#181818" points="186.75,534.34,178.6045,528.8037,181.8297,533.4511,177.1822,536.6762,186.75,534.34" style="stroke:#181818;stroke-width:1.0;"/></g><!--link local_user to change_mode--><g id="link_local_user_change_mode"><path d="M58.34,308.53 C73.14,316.6 96.27,328.81 117,338 C148.36,351.9 179.1451,363.4744 206.3251,373.1144 " fill="none" id="local_user-to-change_mode" style="stroke:#181818;stroke-width:1.0;"/><polygon fill="#181818" points="211.98,375.12,204.8348,368.3417,207.2676,373.4486,202.1606,375.8815,211.98,375.12" style="stroke:#181818;stroke-width:1.0;"/></g><!--link local_user to read_measurements--><g id="link_local_user_read_measurements"><path d="M58.4,300 C80.42,300 116.59,300 156.01,300 " fill="none" id="local_user-to-read_measurements" style="stroke:#181818;stroke-width:1.0;"/><polygon fill="#181818" points="162.01,300,153.01,296,157.01,300,153.01,304,162.01,300" style="stroke:#181818;stroke-width:1.0;"/></g><!--link local_user to check_temp--><g id="link_local_user_check_temp"><path d="M58.41,266.52 C71.02,242.59 91,211.31 117,192 C132.46,180.53 145.3875,173.976 163.7975,167.736 " fill="none" id="local_user-to-check_temp" style="stroke:#181818;stroke-width:1.0;"/><polygon fill="#181818" points="169.48,165.81,159.6723,164.9108,164.7446,167.415,162.2403,172.4874,169.48,165.81" style="stroke:#181818;stroke-width:1.0;"/></g><!--link local_user to calibrate_spectrometer--><g id="link_local_user_calibrate_spectrometer"><path d="M57.82,338.37 C70.03,365.39 89.76,400.6 117,423 C142.5,443.97 171.911,454.8775 200.041,461.9475 " fill="none" id="local_user-to-calibrate_spectrometer" style="stroke:#181818;stroke-width:1.0;"/><polygon fill="#181818" points="205.86,463.41,198.1065,457.3369,201.0108,462.1912,196.1565,465.0956,205.86,463.41" style="stroke:#181818;stroke-width:1.0;"/></g><!--link local_user to view_error_logs--><g id="link_local_user_view_error_logs"><path d="M58.42,290.8 C73.07,282.37 95.95,270.01 117,262 C142.09,252.45 164.922,246.015 189.412,240.205 " fill="none" id="local_user-to-view_error_logs" style="stroke:#181818;stroke-width:1.0;"/><polygon fill="#181818" points="195.25,238.82,185.5697,237.0055,190.385,239.9742,187.4164,244.7895,195.25,238.82" style="stroke:#181818;stroke-width:1.0;"/></g><!--link developer to power_on_off--><g id="link_developer_power_on_off"><path d="M78.06,566.31 C110.32,561.07 152.8076,554.1816 190.4376,548.0716 " fill="none" id="developer-to-power_on_off" style="stroke:#181818;stroke-width:1.0;"/><polygon fill="#181818" points="196.36,547.11,186.8353,544.6042,191.4246,547.9114,188.1174,552.5007,196.36,547.11" style="stroke:#181818;stroke-width:1.0;"/></g><!--link developer to flash_firmware--><g id="link_developer_flash_firmware"><path d="M78.06,578.03 C107.88,583.15 145.5669,589.6226 181.7169,595.8426 " fill="none" id="developer-to-flash_firmware" style="stroke:#181818;stroke-width:1.0;"/><polygon fill="#181818" points="187.63,596.86,179.4386,591.3918,182.7024,596.0122,178.0821,599.276,187.63,596.86" style="stroke:#181818;stroke-width:1.0;"/></g><!--SRC=[XLDDJ-Cm4BtxLunwuGBRUuKgGO6b4dHN_U2qakKwazR2Nx8T0aBxttUI9f2FIfkRtvitdhnvrfWdI0w2EXmJP2gWJCfPneHCBi1a5p5CG4JGJWhD2pgsr1s-eNQ-uRFsn9WNybKS42O_XJ42Dfvw1cSmDQMn0y0d0_gehnIH98kZi2HzHX6BW1biXF4QQvciAHvhfA_wxKfgvUpKvNbTwok0Eyi9E7-1otfT3PtxXMiKMJk7GPjYNHu8vQQ33hkZV0LoHac4BHhoGoGgRQuYaYT2-wATpqH2U531bAAfpRM8HvutqE0IeTMU-ZPTsnFl-jfNl2WiuJu4MjkJEvp-v8qmZXN6DM7iBsCNSF-Uq6RaE-qT5gIbIKXqXxw2hLGOsSW2-37lsWWpkBvMLkeYmpYVi_C3_aV4h2DBJgbqURTo1fjI9Nc4FQOIqS9ojTnErxlLT77pjBnTtsoNlrOZUUlyZ3PlLPNVzBqTo6aeY6XZXHTxlFnZ7rzE8O9OUAy_Bk5viMECVJy3kBgQ3p8v87iXF2-iOpUWnX4RQRzoD6JEPs5GDTmy-tgxux7xL3-L_m00]--></g></svg>