<?xml version="1.0" encoding="utf-8" standalone="no"?>
<!DOCTYPE svg PUBLIC "-//W3C//DTD SVG 1.1//EN"
  "http://www.w3.org/Graphics/SVG/1.1/DTD/svg11.dtd">
<svg xmlns:xlink="http://www.w3.org/1999/xlink" width="864pt" height="576pt" viewBox="0 0 864 576" xmlns="http://www.w3.org/2000/svg" version="1.1">
 <metadata>
  <rdf:RDF xmlns:dc="http://purl.org/dc/elements/1.1/" xmlns:cc="http://creativecommons.org/ns#" xmlns:rdf="http://www.w3.org/1999/02/22-rdf-syntax-ns#">
   <cc:Work>
    <dc:type rdf:resource="http://purl.org/dc/dcmitype/StillImage"/>
    <dc:date>2026-05-10T15:48:24.539546</dc:date>
    <dc:format>image/svg+xml</dc:format>
    <dc:creator>
     <cc:Agent>
      <dc:title>Matplotlib v3.10.9, https://matplotlib.org/</dc:title>
     </cc:Agent>
    </dc:creator>
   </cc:Work>
  </rdf:RDF>
 </metadata>
 <defs>
  <style type="text/css">*{stroke-linejoin: round; stroke-linecap: butt}</style>
 </defs>
 <g id="figure_1">
  <g id="patch_1">
   <path d="M 0 576 
L 864 576 
L 864 0 
L 0 0 
z
" style="fill: #ffffff"/>
  </g>
  <g id="axes_1">
   <g id="patch_2">
    <path d="M 596.452 296.76 
C 596.452 258.04634 585.983547 220.043631 566.159254 186.790889 
C 546.33496 153.538148 517.882945 126.256703 483.827156 107.84609 
C 449.771367 89.435477 411.362627 80.571893 372.683107 82.197382 
C 334.003588 83.82287 296.473935 95.877729 264.08289 117.080739 
C 231.691845 138.283748 205.629086 167.856151 188.664625 202.654923 
C 171.700164 237.453695 164.457083 276.200723 167.705193 314.777882 
C 170.953303 353.355041 184.573306 390.345445 207.117636 421.817665 
C 229.661965 453.289885 260.302599 478.08799 295.782977 493.576378 
L 381.7 296.76 
z
" style="fill: #1f77b4"/>
   </g>
   <g id="patch_3">
    <path d="M 295.783 493.576388 
C 300.74334 495.741749 305.783771 497.718807 310.893489 499.503336 
C 316.003208 501.287865 321.17856 502.878587 326.408466 504.272095 
L 381.7 296.76 
z
" style="fill: #ff7f0e"/>
   </g>
   <g id="patch_4">
    <path d="M 326.408466 504.272095 
C 331.638388 505.665603 336.919072 506.860888 342.239303 507.855413 
C 347.559534 508.849939 352.915516 509.642989 358.295665 510.232849 
L 381.7 296.76 
z
" style="fill: #2ca02c"/>
   </g>
   <g id="patch_5">
    <path d="M 358.295665 510.232849 
C 388.2912 513.521455 418.645806 510.45131 447.375365 501.223122 
C 476.104926 491.994934 502.569515 476.814235 525.039284 456.673325 
C 547.509053 436.532414 565.483514 411.879888 577.787774 384.327165 
C 590.092033 356.774443 596.452 326.935234 596.452 296.759962 
L 381.7 296.76 
z
" style="fill: #d62728"/>
   </g>
   <g id="matplotlib.axis_1"/>
   <g id="matplotlib.axis_2"/>
   <g id="text_1">
    <!-- Jitter Variance Contribution (Typical Case) -->
    <g transform="translate(215.215 22.32) scale(0.16 -0.16)">
     <defs>
      <path id="DejaVuSans-4a" d="M 628 4666 
L 1259 4666 
L 1259 325 
Q 1259 -519 939 -900 
Q 619 -1281 -91 -1281 
L -331 -1281 
L -331 -750 
L -134 -750 
Q 284 -750 456 -515 
Q 628 -281 628 325 
L 628 4666 
z
" transform="scale(0.015625)"/>
      <path id="DejaVuSans-69" d="M 603 3500 
L 1178 3500 
L 1178 0 
L 603 0 
L 603 3500 
z
M 603 4863 
L 1178 4863 
L 1178 4134 
L 603 4134 
L 603 4863 
z
" transform="scale(0.015625)"/>
      <path id="DejaVuSans-74" d="M 1172 4494 
L 1172 3500 
L 2356 3500 
L 2356 3053 
L 1172 3053 
L 1172 1153 
Q 1172 725 1289 603 
Q 1406 481 1766 481 
L 2356 481 
L 2356 0 
L 1766 0 
Q 1100 0 847 248 
Q 594 497 594 1153 
L 594 3053 
L 172 3053 
L 172 3500 
L 594 3500 
L 594 4494 
L 1172 4494 
z
" transform="scale(0.015625)"/>
      <path id="DejaVuSans-65" d="M 3597 1894 
L 3597 1613 
L 953 1613 
Q 991 1019 1311 708 
Q 1631 397 2203 397 
Q 2534 397 2845 478 
Q 3156 559 3463 722 
L 3463 178 
Q 3153 47 2828 -22 
Q 2503 -91 2169 -91 
Q 1331 -91 842 396 
Q 353 884 353 1716 
Q 353 2575 817 3079 
Q 1281 3584 2069 3584 
Q 2775 3584 3186 3129 
Q 3597 2675 3597 1894 
z
M 3022 2063 
Q 3016 2534 2758 2815 
Q 2500 3097 2075 3097 
Q 1594 3097 1305 2825 
Q 1016 2553 972 2059 
L 3022 2063 
z
" transform="scale(0.015625)"/>
      <path id="DejaVuSans-72" d="M 2631 2963 
Q 2534 3019 2420 3045 
Q 2306 3072 2169 3072 
Q 1681 3072 1420 2755 
Q 1159 2438 1159 1844 
L 1159 0 
L 581 0 
L 581 3500 
L 1159 3500 
L 1159 2956 
Q 1341 3275 1631 3429 
Q 1922 3584 2338 3584 
Q 2397 3584 2469 3576 
Q 2541 3569 2628 3553 
L 2631 2963 
z
" transform="scale(0.015625)"/>
      <path id="DejaVuSans-20" transform="scale(0.015625)"/>
      <path id="DejaVuSans-56" d="M 1831 0 
L 50 4666 
L 709 4666 
L 2188 738 
L 3669 4666 
L 4325 4666 
L 2547 0 
L 1831 0 
z
" transform="scale(0.015625)"/>
      <path id="DejaVuSans-61" d="M 2194 1759 
Q 1497 1759 1228 1600 
Q 959 1441 959 1056 
Q 959 750 1161 570 
Q 1363 391 1709 391 
Q 2188 391 2477 730 
Q 2766 1069 2766 1631 
L 2766 1759 
L 2194 1759 
z
M 3341 1997 
L 3341 0 
L 2766 0 
L 2766 531 
Q 2569 213 2275 61 
Q 1981 -91 1556 -91 
Q 1019 -91 701 211 
Q 384 513 384 1019 
Q 384 1609 779 1909 
Q 1175 2209 1959 2209 
L 2766 2209 
L 2766 2266 
Q 2766 2663 2505 2880 
Q 2244 3097 1772 3097 
Q 1472 3097 1187 3025 
Q 903 2953 641 2809 
L 641 3341 
Q 956 3463 1253 3523 
Q 1550 3584 1831 3584 
Q 2591 3584 2966 3190 
Q 3341 2797 3341 1997 
z
" transform="scale(0.015625)"/>
      <path id="DejaVuSans-6e" d="M 3513 2113 
L 3513 0 
L 2938 0 
L 2938 2094 
Q 2938 2591 2744 2837 
Q 2550 3084 2163 3084 
Q 1697 3084 1428 2787 
Q 1159 2491 1159 1978 
L 1159 0 
L 581 0 
L 581 3500 
L 1159 3500 
L 1159 2956 
Q 1366 3272 1645 3428 
Q 1925 3584 2291 3584 
Q 2894 3584 3203 3211 
Q 3513 2838 3513 2113 
z
" transform="scale(0.015625)"/>
      <path id="DejaVuSans-63" d="M 3122 3366 
L 3122 2828 
Q 2878 2963 2633 3030 
Q 2388 3097 2138 3097 
Q 1578 3097 1268 2742 
Q 959 2388 959 1747 
Q 959 1106 1268 751 
Q 1578 397 2138 397 
Q 2388 397 2633 464 
Q 2878 531 3122 666 
L 3122 134 
Q 2881 22 2623 -34 
Q 2366 -91 2075 -91 
Q 1284 -91 818 406 
Q 353 903 353 1747 
Q 353 2603 823 3093 
Q 1294 3584 2113 3584 
Q 2378 3584 2631 3529 
Q 2884 3475 3122 3366 
z
" transform="scale(0.015625)"/>
      <path id="DejaVuSans-43" d="M 4122 4306 
L 4122 3641 
Q 3803 3938 3442 4084 
Q 3081 4231 2675 4231 
Q 1875 4231 1450 3742 
Q 1025 3253 1025 2328 
Q 1025 1406 1450 917 
Q 1875 428 2675 428 
Q 3081 428 3442 575 
Q 3803 722 4122 1019 
L 4122 359 
Q 3791 134 3420 21 
Q 3050 -91 2638 -91 
Q 1578 -91 968 557 
Q 359 1206 359 2328 
Q 359 3453 968 4101 
Q 1578 4750 2638 4750 
Q 3056 4750 3426 4639 
Q 3797 4528 4122 4306 
z
" transform="scale(0.015625)"/>
      <path id="DejaVuSans-6f" d="M 1959 3097 
Q 1497 3097 1228 2736 
Q 959 2375 959 1747 
Q 959 1119 1226 758 
Q 1494 397 1959 397 
Q 2419 397 2687 759 
Q 2956 1122 2956 1747 
Q 2956 2369 2687 2733 
Q 2419 3097 1959 3097 
z
M 1959 3584 
Q 2709 3584 3137 3096 
Q 3566 2609 3566 1747 
Q 3566 888 3137 398 
Q 2709 -91 1959 -91 
Q 1206 -91 779 398 
Q 353 888 353 1747 
Q 353 2609 779 3096 
Q 1206 3584 1959 3584 
z
" transform="scale(0.015625)"/>
      <path id="DejaVuSans-62" d="M 3116 1747 
Q 3116 2381 2855 2742 
Q 2594 3103 2138 3103 
Q 1681 3103 1420 2742 
Q 1159 2381 1159 1747 
Q 1159 1113 1420 752 
Q 1681 391 2138 391 
Q 2594 391 2855 752 
Q 3116 1113 3116 1747 
z
M 1159 2969 
Q 1341 3281 1617 3432 
Q 1894 3584 2278 3584 
Q 2916 3584 3314 3078 
Q 3713 2572 3713 1747 
Q 3713 922 3314 415 
Q 2916 -91 2278 -91 
Q 1894 -91 1617 61 
Q 1341 213 1159 525 
L 1159 0 
L 581 0 
L 581 4863 
L 1159 4863 
L 1159 2969 
z
" transform="scale(0.015625)"/>
      <path id="DejaVuSans-75" d="M 544 1381 
L 544 3500 
L 1119 3500 
L 1119 1403 
Q 1119 906 1312 657 
Q 1506 409 1894 409 
Q 2359 409 2629 706 
Q 2900 1003 2900 1516 
L 2900 3500 
L 3475 3500 
L 3475 0 
L 2900 0 
L 2900 538 
Q 2691 219 2414 64 
Q 2138 -91 1772 -91 
Q 1169 -91 856 284 
Q 544 659 544 1381 
z
M 1991 3584 
L 1991 3584 
z
" transform="scale(0.015625)"/>
      <path id="DejaVuSans-28" d="M 1984 4856 
Q 1566 4138 1362 3434 
Q 1159 2731 1159 2009 
Q 1159 1288 1364 580 
Q 1569 -128 1984 -844 
L 1484 -844 
Q 1016 -109 783 600 
Q 550 1309 550 2009 
Q 550 2706 781 3412 
Q 1013 4119 1484 4856 
L 1984 4856 
z
" transform="scale(0.015625)"/>
      <path id="DejaVuSans-54" d="M -19 4666 
L 3928 4666 
L 3928 4134 
L 2272 4134 
L 2272 0 
L 1638 0 
L 1638 4134 
L -19 4134 
L -19 4666 
z
" transform="scale(0.015625)"/>
      <path id="DejaVuSans-79" d="M 2059 -325 
Q 1816 -950 1584 -1140 
Q 1353 -1331 966 -1331 
L 506 -1331 
L 506 -850 
L 844 -850 
Q 1081 -850 1212 -737 
Q 1344 -625 1503 -206 
L 1606 56 
L 191 3500 
L 800 3500 
L 1894 763 
L 2988 3500 
L 3597 3500 
L 2059 -325 
z
" transform="scale(0.015625)"/>
      <path id="DejaVuSans-70" d="M 1159 525 
L 1159 -1331 
L 581 -1331 
L 581 3500 
L 1159 3500 
L 1159 2969 
Q 1341 3281 1617 3432 
Q 1894 3584 2278 3584 
Q 2916 3584 3314 3078 
Q 3713 2572 3713 1747 
Q 3713 922 3314 415 
Q 2916 -91 2278 -91 
Q 1894 -91 1617 61 
Q 1341 213 1159 525 
z
M 3116 1747 
Q 3116 2381 2855 2742 
Q 2594 3103 2138 3103 
Q 1681 3103 1420 2742 
Q 1159 2381 1159 1747 
Q 1159 1113 1420 752 
Q 1681 391 2138 391 
Q 2594 391 2855 752 
Q 3116 1113 3116 1747 
z
" transform="scale(0.015625)"/>
      <path id="DejaVuSans-6c" d="M 603 4863 
L 1178 4863 
L 1178 0 
L 603 0 
L 603 4863 
z
" transform="scale(0.015625)"/>
      <path id="DejaVuSans-73" d="M 2834 3397 
L 2834 2853 
Q 2591 2978 2328 3040 
Q 2066 3103 1784 3103 
Q 1356 3103 1142 2972 
Q 928 2841 928 2578 
Q 928 2378 1081 2264 
Q 1234 2150 1697 2047 
L 1894 2003 
Q 2506 1872 2764 1633 
Q 3022 1394 3022 966 
Q 3022 478 2636 193 
Q 2250 -91 1575 -91 
Q 1294 -91 989 -36 
Q 684 19 347 128 
L 347 722 
Q 666 556 975 473 
Q 1284 391 1588 391 
Q 1994 391 2212 530 
Q 2431 669 2431 922 
Q 2431 1156 2273 1281 
Q 2116 1406 1581 1522 
L 1381 1569 
Q 847 1681 609 1914 
Q 372 2147 372 2553 
Q 372 3047 722 3315 
Q 1072 3584 1716 3584 
Q 2034 3584 2315 3537 
Q 2597 3491 2834 3397 
z
" transform="scale(0.015625)"/>
      <path id="DejaVuSans-29" d="M 513 4856 
L 1013 4856 
Q 1481 4119 1714 3412 
Q 1947 2706 1947 2009 
Q 1947 1309 1714 600 
Q 1481 -109 1013 -844 
L 513 -844 
Q 928 -128 1133 580 
Q 1338 1288 1338 2009 
Q 1338 2731 1133 3434 
Q 928 4138 513 4856 
z
" transform="scale(0.015625)"/>
     </defs>
     <use xlink:href="#DejaVuSans-4a"/>
     <use xlink:href="#DejaVuSans-69" transform="translate(29.492188 0)"/>
     <use xlink:href="#DejaVuSans-74" transform="translate(57.275391 0)"/>
     <use xlink:href="#DejaVuSans-74" transform="translate(96.484375 0)"/>
     <use xlink:href="#DejaVuSans-65" transform="translate(135.693359 0)"/>
     <use xlink:href="#DejaVuSans-72" transform="translate(197.216797 0)"/>
     <use xlink:href="#DejaVuSans-20" transform="translate(238.330078 0)"/>
     <use xlink:href="#DejaVuSans-56" transform="translate(270.117188 0)"/>
     <use xlink:href="#DejaVuSans-61" transform="translate(330.775391 0)"/>
     <use xlink:href="#DejaVuSans-72" transform="translate(392.054688 0)"/>
     <use xlink:href="#DejaVuSans-69" transform="translate(433.167969 0)"/>
     <use xlink:href="#DejaVuSans-61" transform="translate(460.951172 0)"/>
     <use xlink:href="#DejaVuSans-6e" transform="translate(522.230469 0)"/>
     <use xlink:href="#DejaVuSans-63" transform="translate(585.609375 0)"/>
     <use xlink:href="#DejaVuSans-65" transform="translate(640.589844 0)"/>
     <use xlink:href="#DejaVuSans-20" transform="translate(702.113281 0)"/>
     <use xlink:href="#DejaVuSans-43" transform="translate(733.900391 0)"/>
     <use xlink:href="#DejaVuSans-6f" transform="translate(803.724609 0)"/>
     <use xlink:href="#DejaVuSans-6e" transform="translate(864.90625 0)"/>
     <use xlink:href="#DejaVuSans-74" transform="translate(928.285156 0)"/>
     <use xlink:href="#DejaVuSans-72" transform="translate(967.494141 0)"/>
     <use xlink:href="#DejaVuSans-69" transform="translate(1008.607422 0)"/>
     <use xlink:href="#DejaVuSans-62" transform="translate(1036.390625 0)"/>
     <use xlink:href="#DejaVuSans-75" transform="translate(1099.867188 0)"/>
     <use xlink:href="#DejaVuSans-74" transform="translate(1163.246094 0)"/>
     <use xlink:href="#DejaVuSans-69" transform="translate(1202.455078 0)"/>
     <use xlink:href="#DejaVuSans-6f" transform="translate(1230.238281 0)"/>
     <use xlink:href="#DejaVuSans-6e" transform="translate(1291.419922 0)"/>
     <use xlink:href="#DejaVuSans-20" transform="translate(1354.798828 0)"/>
     <use xlink:href="#DejaVuSans-28" transform="translate(1386.585938 0)"/>
     <use xlink:href="#DejaVuSans-54" transform="translate(1425.599609 0)"/>
     <use xlink:href="#DejaVuSans-79" transform="translate(1471.058594 0)"/>
     <use xlink:href="#DejaVuSans-70" transform="translate(1530.238281 0)"/>
     <use xlink:href="#DejaVuSans-69" transform="translate(1593.714844 0)"/>
     <use xlink:href="#DejaVuSans-63" transform="translate(1621.498047 0)"/>
     <use xlink:href="#DejaVuSans-61" transform="translate(1676.478516 0)"/>
     <use xlink:href="#DejaVuSans-6c" transform="translate(1737.757812 0)"/>
     <use xlink:href="#DejaVuSans-20" transform="translate(1765.541016 0)"/>
     <use xlink:href="#DejaVuSans-43" transform="translate(1797.328125 0)"/>
     <use xlink:href="#DejaVuSans-61" transform="translate(1867.152344 0)"/>
     <use xlink:href="#DejaVuSans-73" transform="translate(1928.431641 0)"/>
     <use xlink:href="#DejaVuSans-65" transform="translate(1980.53125 0)"/>
     <use xlink:href="#DejaVuSans-29" transform="translate(2042.054688 0)"/>
    </g>
   </g>
   <g id="legend_1">
    <g id="patch_6">
     <path d="M 659.94 339.95875 
L 860.42 339.95875 
Q 863.22 339.95875 863.22 337.15875 
L 863.22 256.36125 
Q 863.22 253.56125 860.42 253.56125 
L 659.94 253.56125 
Q 657.14 253.56125 657.14 256.36125 
L 657.14 337.15875 
Q 657.14 339.95875 659.94 339.95875 
z
" style="fill: #ffffff; opacity: 0.8; stroke: #cccccc; stroke-linejoin: miter"/>
    </g>
    <g id="patch_7">
     <path d="M 662.74 269.799062 
L 690.74 269.799062 
L 690.74 259.999062 
L 662.74 259.999062 
z
" style="fill: #1f77b4"/>
    </g>
    <g id="text_2">
     <!-- Oscillator (68.4%) -->
     <g transform="translate(701.94 269.799062) scale(0.14 -0.14)">
      <defs>
       <path id="DejaVuSans-4f" d="M 2522 4238 
Q 1834 4238 1429 3725 
Q 1025 3213 1025 2328 
Q 1025 1447 1429 934 
Q 1834 422 2522 422 
Q 3209 422 3611 934 
Q 4013 1447 4013 2328 
Q 4013 3213 3611 3725 
Q 3209 4238 2522 4238 
z
M 2522 4750 
Q 3503 4750 4090 4092 
Q 4678 3434 4678 2328 
Q 4678 1225 4090 567 
Q 3503 -91 2522 -91 
Q 1538 -91 948 565 
Q 359 1222 359 2328 
Q 359 3434 948 4092 
Q 1538 4750 2522 4750 
z
" transform="scale(0.015625)"/>
       <path id="DejaVuSans-36" d="M 2113 2584 
Q 1688 2584 1439 2293 
Q 1191 2003 1191 1497 
Q 1191 994 1439 701 
Q 1688 409 2113 409 
Q 2538 409 2786 701 
Q 3034 994 3034 1497 
Q 3034 2003 2786 2293 
Q 2538 2584 2113 2584 
z
M 3366 4563 
L 3366 3988 
Q 3128 4100 2886 4159 
Q 2644 4219 2406 4219 
Q 1781 4219 1451 3797 
Q 1122 3375 1075 2522 
Q 1259 2794 1537 2939 
Q 1816 3084 2150 3084 
Q 2853 3084 3261 2657 
Q 3669 2231 3669 1497 
Q 3669 778 3244 343 
Q 2819 -91 2113 -91 
Q 1303 -91 875 529 
Q 447 1150 447 2328 
Q 447 3434 972 4092 
Q 1497 4750 2381 4750 
Q 2619 4750 2861 4703 
Q 3103 4656 3366 4563 
z
" transform="scale(0.015625)"/>
       <path id="DejaVuSans-38" d="M 2034 2216 
Q 1584 2216 1326 1975 
Q 1069 1734 1069 1313 
Q 1069 891 1326 650 
Q 1584 409 2034 409 
Q 2484 409 2743 651 
Q 3003 894 3003 1313 
Q 3003 1734 2745 1975 
Q 2488 2216 2034 2216 
z
M 1403 2484 
Q 997 2584 770 2862 
Q 544 3141 544 3541 
Q 544 4100 942 4425 
Q 1341 4750 2034 4750 
Q 2731 4750 3128 4425 
Q 3525 4100 3525 3541 
Q 3525 3141 3298 2862 
Q 3072 2584 2669 2484 
Q 3125 2378 3379 2068 
Q 3634 1759 3634 1313 
Q 3634 634 3220 271 
Q 2806 -91 2034 -91 
Q 1263 -91 848 271 
Q 434 634 434 1313 
Q 434 1759 690 2068 
Q 947 2378 1403 2484 
z
M 1172 3481 
Q 1172 3119 1398 2916 
Q 1625 2713 2034 2713 
Q 2441 2713 2670 2916 
Q 2900 3119 2900 3481 
Q 2900 3844 2670 4047 
Q 2441 4250 2034 4250 
Q 1625 4250 1398 4047 
Q 1172 3844 1172 3481 
z
" transform="scale(0.015625)"/>
       <path id="DejaVuSans-2e" d="M 684 794 
L 1344 794 
L 1344 0 
L 684 0 
L 684 794 
z
" transform="scale(0.015625)"/>
       <path id="DejaVuSans-34" d="M 2419 4116 
L 825 1625 
L 2419 1625 
L 2419 4116 
z
M 2253 4666 
L 3047 4666 
L 3047 1625 
L 3713 1625 
L 3713 1100 
L 3047 1100 
L 3047 0 
L 2419 0 
L 2419 1100 
L 313 1100 
L 313 1709 
L 2253 4666 
z
" transform="scale(0.015625)"/>
       <path id="DejaVuSans-25" d="M 4653 2053 
Q 4381 2053 4226 1822 
Q 4072 1591 4072 1178 
Q 4072 772 4226 539 
Q 4381 306 4653 306 
Q 4919 306 5073 539 
Q 5228 772 5228 1178 
Q 5228 1588 5073 1820 
Q 4919 2053 4653 2053 
z
M 4653 2450 
Q 5147 2450 5437 2106 
Q 5728 1763 5728 1178 
Q 5728 594 5436 251 
Q 5144 -91 4653 -91 
Q 4153 -91 3862 251 
Q 3572 594 3572 1178 
Q 3572 1766 3864 2108 
Q 4156 2450 4653 2450 
z
M 1428 4353 
Q 1159 4353 1004 4120 
Q 850 3888 850 3481 
Q 850 3069 1003 2837 
Q 1156 2606 1428 2606 
Q 1700 2606 1854 2837 
Q 2009 3069 2009 3481 
Q 2009 3884 1853 4118 
Q 1697 4353 1428 4353 
z
M 4250 4750 
L 4750 4750 
L 1831 -91 
L 1331 -91 
L 4250 4750 
z
M 1428 4750 
Q 1922 4750 2215 4408 
Q 2509 4066 2509 3481 
Q 2509 2891 2217 2550 
Q 1925 2209 1428 2209 
Q 931 2209 642 2551 
Q 353 2894 353 3481 
Q 353 4063 643 4406 
Q 934 4750 1428 4750 
z
" transform="scale(0.015625)"/>
      </defs>
      <use xlink:href="#DejaVuSans-4f"/>
      <use xlink:href="#DejaVuSans-73" transform="translate(78.710938 0)"/>
      <use xlink:href="#DejaVuSans-63" transform="translate(130.810547 0)"/>
      <use xlink:href="#DejaVuSans-69" transform="translate(185.791016 0)"/>
      <use xlink:href="#DejaVuSans-6c" transform="translate(213.574219 0)"/>
      <use xlink:href="#DejaVuSans-6c" transform="translate(241.357422 0)"/>
      <use xlink:href="#DejaVuSans-61" transform="translate(269.140625 0)"/>
      <use xlink:href="#DejaVuSans-74" transform="translate(330.419922 0)"/>
      <use xlink:href="#DejaVuSans-6f" transform="translate(369.628906 0)"/>
      <use xlink:href="#DejaVuSans-72" transform="translate(430.810547 0)"/>
      <use xlink:href="#DejaVuSans-20" transform="translate(471.923828 0)"/>
      <use xlink:href="#DejaVuSans-28" transform="translate(503.710938 0)"/>
      <use xlink:href="#DejaVuSans-36" transform="translate(542.724609 0)"/>
      <use xlink:href="#DejaVuSans-38" transform="translate(606.347656 0)"/>
      <use xlink:href="#DejaVuSans-2e" transform="translate(669.970703 0)"/>
      <use xlink:href="#DejaVuSans-34" transform="translate(701.757812 0)"/>
      <use xlink:href="#DejaVuSans-25" transform="translate(765.380859 0)"/>
      <use xlink:href="#DejaVuSans-29" transform="translate(860.400391 0)"/>
     </g>
    </g>
    <g id="patch_8">
     <path d="M 662.74 290.348437 
L 690.74 290.348437 
L 690.74 280.548437 
L 662.74 280.548437 
z
" style="fill: #ff7f0e"/>
    </g>
    <g id="text_3">
     <!-- Fanout (2.4%) -->
     <g transform="translate(701.94 290.348437) scale(0.14 -0.14)">
      <defs>
       <path id="DejaVuSans-46" d="M 628 4666 
L 3309 4666 
L 3309 4134 
L 1259 4134 
L 1259 2759 
L 3109 2759 
L 3109 2228 
L 1259 2228 
L 1259 0 
L 628 0 
L 628 4666 
z
" transform="scale(0.015625)"/>
       <path id="DejaVuSans-32" d="M 1228 531 
L 3431 531 
L 3431 0 
L 469 0 
L 469 531 
Q 828 903 1448 1529 
Q 2069 2156 2228 2338 
Q 2531 2678 2651 2914 
Q 2772 3150 2772 3378 
Q 2772 3750 2511 3984 
Q 2250 4219 1831 4219 
Q 1534 4219 1204 4116 
Q 875 4013 500 3803 
L 500 4441 
Q 881 4594 1212 4672 
Q 1544 4750 1819 4750 
Q 2544 4750 2975 4387 
Q 3406 4025 3406 3419 
Q 3406 3131 3298 2873 
Q 3191 2616 2906 2266 
Q 2828 2175 2409 1742 
Q 1991 1309 1228 531 
z
" transform="scale(0.015625)"/>
      </defs>
      <use xlink:href="#DejaVuSans-46"/>
      <use xlink:href="#DejaVuSans-61" transform="translate(48.394531 0)"/>
      <use xlink:href="#DejaVuSans-6e" transform="translate(109.673828 0)"/>
      <use xlink:href="#DejaVuSans-6f" transform="translate(173.052734 0)"/>
      <use xlink:href="#DejaVuSans-75" transform="translate(234.234375 0)"/>
      <use xlink:href="#DejaVuSans-74" transform="translate(297.613281 0)"/>
      <use xlink:href="#DejaVuSans-20" transform="translate(336.822266 0)"/>
      <use xlink:href="#DejaVuSans-28" transform="translate(368.609375 0)"/>
      <use xlink:href="#DejaVuSans-32" transform="translate(407.623047 0)"/>
      <use xlink:href="#DejaVuSans-2e" transform="translate(471.246094 0)"/>
      <use xlink:href="#DejaVuSans-34" transform="translate(503.033203 0)"/>
      <use xlink:href="#DejaVuSans-25" transform="translate(566.65625 0)"/>
      <use xlink:href="#DejaVuSans-29" transform="translate(661.675781 0)"/>
     </g>
    </g>
    <g id="patch_9">
     <path d="M 662.74 310.897812 
L 690.74 310.897812 
L 690.74 301.097812 
L 662.74 301.097812 
z
" style="fill: #2ca02c"/>
    </g>
    <g id="text_4">
     <!-- LVDS-&gt;CMOS (2.4%) -->
     <g transform="translate(701.94 310.897812) scale(0.14 -0.14)">
      <defs>
       <path id="DejaVuSans-4c" d="M 628 4666 
L 1259 4666 
L 1259 531 
L 3531 531 
L 3531 0 
L 628 0 
L 628 4666 
z
" transform="scale(0.015625)"/>
       <path id="DejaVuSans-44" d="M 1259 4147 
L 1259 519 
L 2022 519 
Q 2988 519 3436 956 
Q 3884 1394 3884 2338 
Q 3884 3275 3436 3711 
Q 2988 4147 2022 4147 
L 1259 4147 
z
M 628 4666 
L 1925 4666 
Q 3281 4666 3915 4102 
Q 4550 3538 4550 2338 
Q 4550 1131 3912 565 
Q 3275 0 1925 0 
L 628 0 
L 628 4666 
z
" transform="scale(0.015625)"/>
       <path id="DejaVuSans-53" d="M 3425 4513 
L 3425 3897 
Q 3066 4069 2747 4153 
Q 2428 4238 2131 4238 
Q 1616 4238 1336 4038 
Q 1056 3838 1056 3469 
Q 1056 3159 1242 3001 
Q 1428 2844 1947 2747 
L 2328 2669 
Q 3034 2534 3370 2195 
Q 3706 1856 3706 1288 
Q 3706 609 3251 259 
Q 2797 -91 1919 -91 
Q 1588 -91 1214 -16 
Q 841 59 441 206 
L 441 856 
Q 825 641 1194 531 
Q 1563 422 1919 422 
Q 2459 422 2753 634 
Q 3047 847 3047 1241 
Q 3047 1584 2836 1778 
Q 2625 1972 2144 2069 
L 1759 2144 
Q 1053 2284 737 2584 
Q 422 2884 422 3419 
Q 422 4038 858 4394 
Q 1294 4750 2059 4750 
Q 2388 4750 2728 4690 
Q 3069 4631 3425 4513 
z
" transform="scale(0.015625)"/>
       <path id="DejaVuSans-2d" d="M 313 2009 
L 1997 2009 
L 1997 1497 
L 313 1497 
L 313 2009 
z
" transform="scale(0.015625)"/>
       <path id="DejaVuSans-3e" d="M 678 3150 
L 678 3719 
L 4684 2266 
L 4684 1747 
L 678 294 
L 678 863 
L 3897 2003 
L 678 3150 
z
" transform="scale(0.015625)"/>
       <path id="DejaVuSans-4d" d="M 628 4666 
L 1569 4666 
L 2759 1491 
L 3956 4666 
L 4897 4666 
L 4897 0 
L 4281 0 
L 4281 4097 
L 3078 897 
L 2444 897 
L 1241 4097 
L 1241 0 
L 628 0 
L 628 4666 
z
" transform="scale(0.015625)"/>
      </defs>
      <use xlink:href="#DejaVuSans-4c"/>
      <use xlink:href="#DejaVuSans-56" transform="translate(44.712891 0)"/>
      <use xlink:href="#DejaVuSans-44" transform="translate(113.121094 0)"/>
      <use xlink:href="#DejaVuSans-53" transform="translate(190.123047 0)"/>
      <use xlink:href="#DejaVuSans-2d" transform="translate(253.599609 0)"/>
      <use xlink:href="#DejaVuSans-3e" transform="translate(289.683594 0)"/>
      <use xlink:href="#DejaVuSans-43" transform="translate(373.472656 0)"/>
      <use xlink:href="#DejaVuSans-4d" transform="translate(443.296875 0)"/>
      <use xlink:href="#DejaVuSans-4f" transform="translate(529.576172 0)"/>
      <use xlink:href="#DejaVuSans-53" transform="translate(608.287109 0)"/>
      <use xlink:href="#DejaVuSans-20" transform="translate(671.763672 0)"/>
      <use xlink:href="#DejaVuSans-28" transform="translate(703.550781 0)"/>
      <use xlink:href="#DejaVuSans-32" transform="translate(742.564453 0)"/>
      <use xlink:href="#DejaVuSans-2e" transform="translate(806.1875 0)"/>
      <use xlink:href="#DejaVuSans-34" transform="translate(837.974609 0)"/>
      <use xlink:href="#DejaVuSans-25" transform="translate(901.597656 0)"/>
      <use xlink:href="#DejaVuSans-29" transform="translate(996.617188 0)"/>
     </g>
    </g>
    <g id="patch_10">
     <path d="M 662.74 331.447187 
L 690.74 331.447187 
L 690.74 321.647187 
L 662.74 321.647187 
z
" style="fill: #d62728"/>
    </g>
    <g id="text_5">
     <!-- ADC Aperture (26.7%) -->
     <g transform="translate(701.94 331.447187) scale(0.14 -0.14)">
      <defs>
       <path id="DejaVuSans-41" d="M 2188 4044 
L 1331 1722 
L 3047 1722 
L 2188 4044 
z
M 1831 4666 
L 2547 4666 
L 4325 0 
L 3669 0 
L 3244 1197 
L 1141 1197 
L 716 0 
L 50 0 
L 1831 4666 
z
" transform="scale(0.015625)"/>
       <path id="DejaVuSans-37" d="M 525 4666 
L 3525 4666 
L 3525 4397 
L 1831 0 
L 1172 0 
L 2766 4134 
L 525 4134 
L 525 4666 
z
" transform="scale(0.015625)"/>
      </defs>
      <use xlink:href="#DejaVuSans-41"/>
      <use xlink:href="#DejaVuSans-44" transform="translate(68.408203 0)"/>
      <use xlink:href="#DejaVuSans-43" transform="translate(145.410156 0)"/>
      <use xlink:href="#DejaVuSans-20" transform="translate(215.234375 0)"/>
      <use xlink:href="#DejaVuSans-41" transform="translate(247.021484 0)"/>
      <use xlink:href="#DejaVuSans-70" transform="translate(315.429688 0)"/>
      <use xlink:href="#DejaVuSans-65" transform="translate(378.90625 0)"/>
      <use xlink:href="#DejaVuSans-72" transform="translate(440.429688 0)"/>
      <use xlink:href="#DejaVuSans-74" transform="translate(481.542969 0)"/>
      <use xlink:href="#DejaVuSans-75" transform="translate(520.751953 0)"/>
      <use xlink:href="#DejaVuSans-72" transform="translate(584.130859 0)"/>
      <use xlink:href="#DejaVuSans-65" transform="translate(622.994141 0)"/>
      <use xlink:href="#DejaVuSans-20" transform="translate(684.517578 0)"/>
      <use xlink:href="#DejaVuSans-28" transform="translate(716.304688 0)"/>
      <use xlink:href="#DejaVuSans-32" transform="translate(755.318359 0)"/>
      <use xlink:href="#DejaVuSans-36" transform="translate(818.941406 0)"/>
      <use xlink:href="#DejaVuSans-2e" transform="translate(882.564453 0)"/>
      <use xlink:href="#DejaVuSans-37" transform="translate(914.351562 0)"/>
      <use xlink:href="#DejaVuSans-25" transform="translate(977.974609 0)"/>
      <use xlink:href="#DejaVuSans-29" transform="translate(1072.994141 0)"/>
     </g>
    </g>
   </g>
  </g>
 </g>
</svg>
